<svg width="33" height="33" viewBox="0 0 33 33" fill="none" xmlns="http://www.w3.org/2000/svg">
<path d="M6.88525 25.5209C5.73525 24.3709 6.49775 21.9584 5.91025 20.5459C5.32275 19.1334 3.07275 17.8959 3.07275 16.3334C3.07275 14.7709 5.29775 13.5834 5.91025 12.1209C6.52275 10.6584 5.73525 8.29587 6.88525 7.14587C8.03525 5.99587 10.4478 6.75837 11.8603 6.17087C13.2728 5.58337 14.5103 3.33337 16.0728 3.33337C17.6353 3.33337 18.8228 5.55837 20.2853 6.17087C21.7478 6.78337 24.1103 5.99587 25.2603 7.14587C26.4103 8.29587 25.6478 10.7084 26.2353 12.1209C26.8228 13.5334 29.0728 14.7709 29.0728 16.3334C29.0728 17.8959 26.8478 19.0834 26.2353 20.5459C25.6228 22.0084 26.4103 24.3709 25.2603 25.5209C24.1103 26.6709 21.6978 25.9084 20.2853 26.4959C18.8728 27.0834 17.6353 29.3334 16.0728 29.3334C14.5103 29.3334 13.3228 27.1084 11.8603 26.4959C10.3978 25.8834 8.03525 26.6709 6.88525 25.5209Z" stroke="#5C5233" stroke-width="2" stroke-linecap="round" stroke-linejoin="round"/>
<path d="M21.5728 13.3334L14.2353 20.3334L10.5728 16.8334" stroke="#5C5233" stroke-width="2" stroke-linecap="round" stroke-linejoin="round"/>
</svg>
