<svg width="32" height="33" viewBox="0 0 32 33" fill="none" xmlns="http://www.w3.org/2000/svg">
<path d="M6.8125 25.5209C5.6625 24.3709 6.425 21.9584 5.8375 20.5459C5.25 19.1334 3 17.8959 3 16.3334C3 14.7709 5.225 13.5834 5.8375 12.1209C6.45 10.6584 5.6625 8.29587 6.8125 7.14587C7.9625 5.99587 10.375 6.75837 11.7875 6.17087C13.2 5.58337 14.4375 3.33337 16 3.33337C17.5625 3.33337 18.75 5.55837 20.2125 6.17087C21.675 6.78337 24.0375 5.99587 25.1875 7.14587C26.3375 8.29587 25.575 10.7084 26.1625 12.1209C26.75 13.5334 29 14.7709 29 16.3334C29 17.8959 26.775 19.0834 26.1625 20.5459C25.55 22.0084 26.3375 24.3709 25.1875 25.5209C24.0375 26.6709 21.625 25.9084 20.2125 26.4959C18.8 27.0834 17.5625 29.3334 16 29.3334C14.4375 29.3334 13.25 27.1084 11.7875 26.4959C10.325 25.8834 7.9625 26.6709 6.8125 25.5209Z" stroke="#5C5233" stroke-width="2" stroke-linecap="round" stroke-linejoin="round"/>
<path d="M21.5 13.3334L14.1625 20.3334L10.5 16.8334" stroke="#5C5233" stroke-width="2" stroke-linecap="round" stroke-linejoin="round"/>
</svg>
