<svg width="26" height="26" viewBox="0 0 26 26" fill="none" xmlns="http://www.w3.org/2000/svg">
<path d="M8.76245 17.2375L17.2375 8.75" stroke="#005F73" stroke-width="2" stroke-linecap="round" stroke-linejoin="round"/>
<path d="M15.125 19.3625L11.5875 22.9C11.0302 23.4573 10.3686 23.8994 9.64043 24.201C8.91229 24.5026 8.13187 24.6578 7.34373 24.6578C5.75202 24.6578 4.22549 24.0255 3.09998 22.9C1.97447 21.7745 1.34216 20.248 1.34216 18.6562C1.34216 17.0645 1.97447 15.538 3.09998 14.4125L6.63748 10.875" stroke="#005F73" stroke-width="2" stroke-linecap="round" stroke-linejoin="round"/>
<path d="M19.3625 15.125L22.9 11.5875C24.0255 10.462 24.6578 8.93545 24.6578 7.34373C24.6578 5.75202 24.0255 4.22549 22.9 3.09998C21.7745 1.97447 20.248 1.34216 18.6562 1.34216C17.0645 1.34216 15.538 1.97447 14.4125 3.09998L10.875 6.63748" stroke="#005F73" stroke-width="2" stroke-linecap="round" stroke-linejoin="round"/>
</svg>
