<svg width="33" height="32" viewBox="0 0 33 32" fill="none" xmlns="http://www.w3.org/2000/svg">
<path d="M12.0728 16H20.0728" stroke="#5C5233" stroke-width="2" stroke-linecap="round" stroke-linejoin="round"/>
<path d="M12.0728 20H20.0728" stroke="#5C5233" stroke-width="2" stroke-linecap="round" stroke-linejoin="round"/>
<path d="M7.07275 5H25.0728C25.338 5 25.5923 5.10536 25.7799 5.29289C25.9674 5.48043 26.0728 5.73478 26.0728 6V25C26.0728 25.7956 25.7567 26.5587 25.1941 27.1213C24.6315 27.6839 23.8684 28 23.0728 28H9.07275C8.2771 28 7.51404 27.6839 6.95143 27.1213C6.38882 26.5587 6.07275 25.7956 6.07275 25V6C6.07275 5.73478 6.17811 5.48043 6.36565 5.29289C6.55318 5.10536 6.80754 5 7.07275 5V5Z" stroke="#5C5233" stroke-width="2" stroke-linecap="round" stroke-linejoin="round"/>
<path d="M10.0728 3V7" stroke="#5C5233" stroke-width="2" stroke-linecap="round" stroke-linejoin="round"/>
<path d="M16.0728 3V7" stroke="#5C5233" stroke-width="2" stroke-linecap="round" stroke-linejoin="round"/>
<path d="M22.0728 3V7" stroke="#5C5233" stroke-width="2" stroke-linecap="round" stroke-linejoin="round"/>
</svg>
