<svg width="32" height="33" viewBox="0 0 32 33" fill="none" xmlns="http://www.w3.org/2000/svg">
<path d="M4 8.66669V18.6667" stroke="#CA6702" stroke-width="2" stroke-linecap="round" stroke-linejoin="round"/>
<path d="M6.7749 27.6667C7.77548 26.132 9.14312 24.8712 10.7539 23.9985C12.3648 23.1258 14.1679 22.6687 15.9999 22.6687C17.8319 22.6687 19.635 23.1258 21.2459 23.9985C22.8567 24.8712 24.2243 26.132 25.2249 27.6667" stroke="#CA6702" stroke-width="2" stroke-linecap="round" stroke-linejoin="round"/>
<path d="M28 8.66669L16 12.6667L4 8.66669L16 4.66669L28 8.66669Z" stroke="#CA6702" stroke-width="2" stroke-linecap="round" stroke-linejoin="round"/>
<path d="M21.1625 10.9417C22.0798 11.9434 22.6859 13.1903 22.9068 14.5305C23.1277 15.8707 22.954 17.2462 22.4067 18.4894C21.8595 19.7325 20.9624 20.7896 19.8248 21.5318C18.6872 22.2739 17.3583 22.6691 16 22.6691C14.6417 22.6691 13.3128 22.2739 12.1752 21.5318C11.0376 20.7896 10.1405 19.7325 9.59329 18.4894C9.04604 17.2462 8.87229 15.8707 9.09322 14.5305C9.31414 13.1903 9.9202 11.9434 10.8375 10.9417" stroke="#CA6702" stroke-width="2" stroke-linecap="round" stroke-linejoin="round"/>
</svg>
