<svg width="33" height="33" viewBox="0 0 33 33" fill="none" xmlns="http://www.w3.org/2000/svg">
<path d="M4.07275 8.66669V18.6667" stroke="#5C5233" stroke-width="2" stroke-linecap="round" stroke-linejoin="round"/>
<path d="M6.84778 27.6667C7.84836 26.132 9.216 24.8712 10.8268 23.9985C12.4376 23.1258 14.2407 22.6687 16.0728 22.6687C17.9048 22.6687 19.7079 23.1258 21.3187 23.9985C22.9296 24.8712 24.2972 26.132 25.2978 27.6667" stroke="#5C5233" stroke-width="2" stroke-linecap="round" stroke-linejoin="round"/>
<path d="M28.0728 8.66669L16.0728 12.6667L4.07275 8.66669L16.0728 4.66669L28.0728 8.66669Z" stroke="#5C5233" stroke-width="2" stroke-linecap="round" stroke-linejoin="round"/>
<path d="M21.2353 10.9417C22.1526 11.9434 22.7586 13.1903 22.9795 14.5305C23.2005 15.8707 23.0267 17.2462 22.4795 18.4894C21.9322 19.7325 21.0351 20.7896 19.8975 21.5318C18.76 22.2739 17.431 22.6691 16.0728 22.6691C14.7145 22.6691 13.3856 22.2739 12.248 21.5318C11.1104 20.7896 10.2133 19.7325 9.66604 18.4894C9.1188 17.2462 8.94505 15.8707 9.16597 14.5305C9.3869 13.1903 9.99295 11.9434 10.9103 10.9417" stroke="#5C5233" stroke-width="2" stroke-linecap="round" stroke-linejoin="round"/>
</svg>
