<svg width="22" height="20" viewBox="0 0 22 20" fill="none" xmlns="http://www.w3.org/2000/svg">
<path d="M7.6002 10.8405L16.0283 18.2561C16.1257 18.3424 16.2439 18.4018 16.3712 18.4285C16.4985 18.4553 16.6306 18.4485 16.7544 18.4088C16.8783 18.369 16.9897 18.2978 17.0777 18.202C17.1658 18.1062 17.2273 17.9892 17.2564 17.8624L20.7814 2.46863C20.811 2.33606 20.804 2.19795 20.7612 2.06905C20.7184 1.94014 20.6414 1.82528 20.5384 1.73673C20.4354 1.64818 20.3103 1.58925 20.1764 1.56625C20.0426 1.54325 19.905 1.55703 19.7783 1.60613L2.47207 8.40301C1.77832 8.67488 1.87207 9.68738 2.60332 9.83738L7.6002 10.8405Z" stroke="#E9D8A6" stroke-width="2" stroke-linecap="round" stroke-linejoin="round"/>
<path d="M7.6001 10.8405L20.3595 1.62486" stroke="#E9D8A6" stroke-width="2" stroke-linecap="round" stroke-linejoin="round"/>
<path d="M11.8095 14.5436L8.88447 17.4686C8.78012 17.5746 8.64662 17.6471 8.50094 17.677C8.35526 17.7069 8.20398 17.6929 8.06632 17.6366C7.92866 17.5803 7.81083 17.4844 7.72782 17.361C7.6448 17.2376 7.60035 17.0923 7.6001 16.9436V10.8405" stroke="#E9D8A6" stroke-width="2" stroke-linecap="round" stroke-linejoin="round"/>
</svg>
