<svg width="24" height="24" viewBox="0 0 24 24" fill="none" xmlns="http://www.w3.org/2000/svg">
<path d="M8.2501 12.6469L16.6782 20.0625C16.7756 20.1487 16.8938 20.2081 17.0211 20.2349C17.1484 20.2617 17.2805 20.2548 17.4043 20.2151C17.5282 20.1754 17.6396 20.1042 17.7276 20.0084C17.8157 19.9126 17.8772 19.7955 17.9063 19.6687L21.4313 4.275C21.4609 4.14243 21.4539 4.00432 21.4111 3.87541C21.3683 3.74651 21.2913 3.63165 21.1883 3.54309C21.0853 3.45454 20.9602 3.39562 20.8263 3.37262C20.6925 3.34962 20.5549 3.3634 20.4282 3.4125L3.12197 10.2094C2.42822 10.4812 2.52197 11.4937 3.25322 11.6437L8.2501 12.6469Z" stroke="#E9D8A6" stroke-linecap="round" stroke-linejoin="round"/>
<path d="M8.25 12.6469L21.0094 3.43124" stroke="#E9D8A6" stroke-linecap="round" stroke-linejoin="round"/>
<path d="M12.4594 16.35L9.53437 19.275C9.43002 19.381 9.29653 19.4535 9.15085 19.4834C9.00517 19.5133 8.85388 19.4993 8.71622 19.443C8.57856 19.3867 8.46073 19.2908 8.37772 19.1674C8.2947 19.044 8.25025 18.8987 8.25 18.75V12.6469" stroke="#E9D8A6" stroke-linecap="round" stroke-linejoin="round"/>
</svg>
