<svg width="33" height="32" viewBox="0 0 33 32" fill="none" xmlns="http://www.w3.org/2000/svg">
<path d="M27.4352 8.87498C28.0912 10.4066 28.2517 12.105 27.8944 13.7324C27.5372 15.3598 26.6799 16.8347 25.4427 17.9507C24.2055 19.0667 22.6502 19.7678 20.9947 19.956C19.3392 20.1441 17.6663 19.8099 16.2102 19V19L9.19771 27.125C8.63412 27.6886 7.86974 28.0052 7.07271 28.0052C6.27568 28.0052 5.51129 27.6886 4.94771 27.125C4.38412 26.5614 4.0675 25.797 4.0675 25C4.0675 24.203 4.38412 23.4386 4.94771 22.875L13.0727 15.8625C12.2628 14.4064 11.9286 12.7335 12.1167 11.078C12.3048 9.42247 13.006 7.86723 14.122 6.63001C15.2379 5.3928 16.7129 4.53553 18.3403 4.17824C19.9677 3.82095 21.6661 3.98153 23.1977 4.63748L17.9477 9.87498L18.6602 13.4125L22.1977 14.125L27.4352 8.87498Z" stroke="#5C5233" stroke-width="2" stroke-linecap="round" stroke-linejoin="round"/>
</svg>
